# Blender v2.78 (sub 0) OBJ File: ''
# www.blender.org
mtllib shpere.mtl
o Icosphere_Icosphere.001
v -0.115941 0.996695 -0.265409
v -0.527238 0.682496 -0.564229
v 0.041157 0.682496 -0.748915
v 0.392448 0.682494 -0.265409
v 0.041157 0.682496 0.218098
v -0.527238 0.682496 0.033412
v -0.273039 0.174099 -0.748915
v 0.295355 0.174100 -0.564229
v 0.295355 0.174100 0.033412
v -0.273039 0.174099 0.218098
v -0.624331 0.174102 -0.265409
v -0.115941 -0.140099 -0.265409
v -0.023602 0.911807 -0.549605
v -0.357694 0.911807 -0.441050
v -0.265355 0.727126 -0.725249
v -0.599447 0.727125 -0.265409
v -0.357694 0.911807 -0.089768
v 0.182882 0.911806 -0.265409
v 0.275223 0.727125 -0.549605
v -0.023602 0.911807 0.018787
v 0.275223 0.727125 0.018788
v -0.265355 0.727126 0.194431
v -0.656520 0.428298 -0.441051
v -0.656520 0.428298 -0.097594
v -0.115941 0.428298 -0.833806
v -0.450037 0.428298 -0.725251
v 0.424637 0.428298 -0.441051
v 0.218154 0.428298 -0.725251
v 0.218154 0.428298 0.194434
v 0.424637 0.428298 -0.089767
v -0.450037 0.428298 0.194434
v -0.115941 0.428298 0.302988
v -0.503987 0.122522 -0.548102
v 0.033473 0.129470 -0.725249
v 0.367564 0.129471 -0.265409
v 0.033473 0.129470 0.194431
v -0.507106 0.129471 0.018788
v -0.208281 -0.055212 -0.549605
v -0.414765 -0.055210 -0.265409
v 0.125811 -0.055211 -0.441050
v 0.125811 -0.055211 -0.089768
v -0.208281 -0.055212 0.018787
vt 0.0000 0.0000
vt 1.0000 0.0000
vt 1.0000 1.0000
vt 0.0000 0.0000
vt 1.0000 1.0000
vt 1.0000 0.0000
vt 1.0000 1.0000
vt 1.0000 0.0000
vt 1.0000 1.0000
vt 1.0000 0.0000
vt 1.0000 1.0000
vt 1.0000 0.0000
vt 1.0000 1.0000
vt 0.0000 0.0000
vt 1.0000 0.0000
vt 1.0000 1.0000
vt 0.0000 0.0000
vt 1.0000 0.0000
vt 1.0000 1.0000
vt 0.0000 0.0000
vt 1.0000 0.0000
vt 1.0000 1.0000
vt 0.0000 0.0000
vt 1.0000 0.0000
vt 1.0000 1.0000
vt 1.0000 0.0000
vt 1.0000 1.0000
vt 1.0000 0.0000
vt 1.0000 1.0000
vt 1.0000 0.0000
vt 1.0000 1.0000
vt 1.0000 0.0000
vt 1.0000 1.0000
vt 1.0000 0.0000
vt 1.0000 1.0000
vt 0.0000 0.0000
vt 1.0000 0.0000
vt 1.0000 1.0000
vt 0.0000 0.0000
vt 1.0000 0.0000
vt 1.0000 1.0000
vt 0.0000 0.0000
vt 1.0000 0.0000
vt 1.0000 1.0000
vt 0.0000 0.0000
vt 1.0000 0.0000
vt 1.0000 1.0000
vt 0.0000 0.0000
vt 1.0000 0.0000
vt 1.0000 1.0000
vt 0.0000 0.0000
vt 1.0000 0.0000
vt 1.0000 1.0000
vt 0.0000 0.0000
vt 1.0000 0.0000
vt 0.0000 0.0000
vt 1.0000 0.0000
vt 0.0000 0.0000
vt 1.0000 0.0000
vt 0.0000 0.0000
vt 1.0000 0.0000
vt 0.0000 0.0000
vt 1.0000 0.0000
vt 0.0000 0.0000
vt 1.0000 0.0000
vt 0.0000 0.0000
vt 1.0000 0.0000
vt 0.0000 0.0000
vt 1.0000 0.0000
vt 0.0000 0.0000
vt 1.0000 0.0000
vt 0.0000 0.0000
vt 1.0000 1.0000
vt 1.0000 1.0000
vt 0.0000 0.0000
vt 0.0000 0.0000
vt 1.0000 1.0000
vt 1.0000 1.0000
vt 0.0000 0.0000
vt 0.0000 0.0000
vt 1.0000 1.0000
vt 1.0000 1.0000
vt 0.0000 0.0000
vt 0.0000 0.0000
vt 1.0000 1.0000
vt 1.0000 1.0000
vt 0.0000 0.0000
vt 0.0000 0.0000
vt 1.0000 1.0000
vt 1.0000 1.0000
vt 0.0000 0.0000
vt 1.0000 0.0000
vt 0.0000 0.0000
vt 1.0000 0.0000
vt 1.0000 0.0000
vt 0.0000 0.0000
vt 1.0000 0.0000
vt 1.0000 0.0000
vt 0.0000 0.0000
vt 1.0000 0.0000
vt 1.0000 0.0000
vt 0.0000 0.0000
vt 1.0000 0.0000
vt 1.0000 0.0000
vt 0.0000 0.0000
vt 1.0000 0.0000
vt 0.0000 0.0000
vt 1.0000 1.0000
vt 1.0000 1.0000
vt 0.0000 0.0000
vt 1.0000 1.0000
vt 1.0000 1.0000
vt 0.0000 0.0000
vt 1.0000 1.0000
vt 1.0000 1.0000
vt 0.0000 0.0000
vt 1.0000 0.0000
vt 0.0000 0.0000
vt 1.0000 0.0000
vt 1.0000 1.0000
vt 1.0000 1.0000
vn 0.1024 -0.9435 0.3151
vn 0.7002 -0.6617 0.2680
vn -0.2680 -0.9435 0.1947
vn -0.2680 -0.9435 -0.1947
vn 0.1024 -0.9435 -0.3151
vn 0.9050 -0.3304 0.2680
vn 0.0247 -0.3304 0.9435
vn -0.8897 -0.3304 0.3151
vn -0.5746 -0.3304 -0.7488
vn 0.5346 -0.3304 -0.7779
vn 0.8026 -0.1256 0.5831
vn -0.3066 -0.1256 0.9435
vn -0.9921 -0.1256 0.0000
vn -0.3066 -0.1256 -0.9435
vn 0.8109 -0.1169 -0.5734
vn 0.4016 0.6628 0.6321
vn -0.4713 0.6617 0.5831
vn -0.7002 0.6617 -0.2680
vn 0.0385 0.6617 -0.7488
vn 0.7240 0.6617 -0.1947
vn 0.2680 0.9435 -0.1947
vn 0.4911 0.7947 -0.3568
vn 0.4089 0.6617 -0.6284
vn -0.1024 0.9435 -0.3151
vn -0.1876 0.7947 -0.5773
vn -0.4713 0.6617 -0.5831
vn -0.3313 0.9435 0.0000
vn -0.6071 0.7947 0.0000
vn -0.7002 0.6617 0.2680
vn -0.1024 0.9435 0.3151
vn -0.1876 0.7947 0.5773
vn 0.0385 0.6617 0.7488
vn 0.2680 0.9435 0.1947
vn 0.4836 0.8017 0.3514
vn 0.7250 0.6626 0.1878
vn 0.8919 0.3224 -0.3172
vn 0.8031 0.1804 -0.5679
vn 0.5746 0.3304 -0.7488
vn -0.0247 0.3304 -0.9435
vn -0.3035 0.1876 -0.9342
vn -0.5346 0.3304 -0.7779
vn -0.9050 0.3304 -0.2680
vn -0.9822 0.1876 0.0000
vn -0.9050 0.3304 0.2680
vn -0.5346 0.3304 0.7779
vn -0.3035 0.1876 0.9342
vn -0.0247 0.3304 0.9435
vn 0.5759 0.3314 0.7474
vn 0.7936 0.1940 0.5766
vn 0.8882 0.3319 0.3176
vn 0.3066 0.1256 -0.9435
vn 0.3035 -0.1876 -0.9342
vn 0.0247 -0.3304 -0.9435
vn -0.8026 0.1256 -0.5831
vn -0.7947 -0.1876 -0.5773
vn -0.8897 -0.3304 -0.3151
vn -0.8026 0.1256 0.5831
vn -0.7947 -0.1876 0.5773
vn -0.5746 -0.3304 0.7488
vn 0.3066 0.1256 0.9435
vn 0.3035 -0.1876 0.9342
vn 0.5346 -0.3304 0.7779
vn 0.9921 0.1256 0.0000
vn 0.9822 -0.1876 0.0000
vn 0.9075 -0.3236 -0.2676
vn 0.4713 -0.6617 -0.5831
vn 0.1876 -0.7947 -0.5773
vn -0.0385 -0.6617 -0.7488
vn -0.4089 -0.6617 -0.6284
vn -0.4911 -0.7947 -0.3568
vn -0.7240 -0.6617 -0.1947
vn -0.7240 -0.6617 0.1947
vn -0.4911 -0.7947 0.3568
vn -0.4089 -0.6617 0.6284
vn 0.7002 -0.6617 -0.2680
vn 0.6071 -0.7947 0.0000
vn 0.3313 -0.9435 0.0000
vn -0.0385 -0.6617 0.7488
vn 0.1876 -0.7947 0.5773
vn 0.4713 -0.6617 0.5831
usemtl Material.001
s off
f 1/1/1 14/2/1 13/3/1
f 2/4/2 14/2/2 16/5/2
f 1/1/3 13/6/3 18/7/3
f 1/1/4 18/8/4 20/9/4
f 1/1/5 20/10/5 17/11/5
f 2/4/6 16/12/6 23/13/6
f 3/14/7 15/15/7 25/16/7
f 4/17/8 19/18/8 27/19/8
f 5/20/9 21/21/9 29/22/9
f 6/23/10 22/24/10 31/25/10
f 2/4/11 23/26/11 26/27/11
f 3/14/12 25/28/12 28/29/12
f 4/17/13 27/30/13 30/31/13
f 5/20/14 29/32/14 32/33/14
f 6/23/15 31/34/15 24/35/15
f 7/36/16 33/37/16 38/38/16
f 8/39/17 34/40/17 40/41/17
f 9/42/18 35/43/18 41/44/18
f 10/45/19 36/46/19 42/47/19
f 11/48/20 37/49/20 39/50/20
f 39/51/21 42/52/21 12/53/21
f 39/51/22 37/49/22 42/47/22
f 37/54/23 10/55/23 42/47/23
f 42/56/24 41/57/24 12/53/24
f 42/56/25 36/46/25 41/44/25
f 36/58/26 9/59/26 41/44/26
f 41/60/27 40/61/27 12/53/27
f 41/60/28 35/43/28 40/41/28
f 35/62/29 8/63/29 40/41/29
f 40/64/30 38/65/30 12/53/30
f 40/64/31 34/40/31 38/38/31
f 34/66/32 7/67/32 38/38/32
f 38/68/33 39/69/33 12/53/33
f 38/68/34 33/37/34 39/50/34
f 33/70/35 11/71/35 39/50/35
f 24/72/36 37/49/36 11/73/36
f 24/72/37 31/34/37 37/74/37
f 31/75/38 10/55/38 37/74/38
f 32/76/39 36/46/39 10/77/39
f 32/76/40 29/32/40 36/78/40
f 29/79/41 9/59/41 36/78/41
f 30/80/42 35/43/42 9/81/42
f 30/80/43 27/30/43 35/82/43
f 27/83/44 8/63/44 35/82/44
f 28/84/45 34/40/45 8/85/45
f 28/84/46 25/28/46 34/86/46
f 25/87/47 7/67/47 34/86/47
f 26/88/48 33/37/48 7/89/48
f 26/88/49 23/26/49 33/90/49
f 23/91/50 11/71/50 33/90/50
f 31/75/51 32/92/51 10/77/51
f 31/75/52 22/24/52 32/33/52
f 22/93/53 5/94/53 32/33/53
f 29/79/54 30/95/54 9/81/54
f 29/79/55 21/21/55 30/31/55
f 21/96/56 4/97/56 30/31/56
f 27/83/57 28/98/57 8/85/57
f 27/83/58 19/18/58 28/29/58
f 19/99/59 3/100/59 28/29/59
f 25/87/60 26/101/60 7/89/60
f 25/87/61 15/15/61 26/27/61
f 15/102/62 2/103/62 26/27/62
f 23/91/63 24/104/63 11/73/63
f 23/91/64 16/12/64 24/35/64
f 16/105/65 6/106/65 24/35/65
f 17/107/66 22/24/66 6/108/66
f 17/107/67 20/10/67 22/109/67
f 20/110/68 5/94/68 22/109/68
f 20/110/69 21/21/69 5/111/69
f 20/110/70 18/8/70 21/112/70
f 18/113/71 4/97/71 21/112/71
f 18/113/72 19/18/72 4/114/72
f 18/113/73 13/6/73 19/115/73
f 13/116/74 3/100/74 19/115/74
f 16/105/75 17/117/75 6/108/75
f 16/105/76 14/2/76 17/11/76
f 14/118/77 1/119/77 17/11/77
f 13/116/78 15/15/78 3/120/78
f 13/116/79 14/2/79 15/121/79
f 14/118/80 2/103/80 15/121/80
